<?xml version="1.0" encoding="utf-8"?>
<!-- Generator: Adobe Illustrator 23.0.4, SVG Export Plug-In . SVG Version: 6.00 Build 0)  -->
<svg version="1.1" id="Layer_1" xmlns="http://www.w3.org/2000/svg" xmlns:xlink="http://www.w3.org/1999/xlink" x="0px" y="0px"
	 viewBox="0 0 194.4 54.7" style="enable-background:new 0 0 194.4 54.7;" xml:space="preserve">
<style type="text/css">
	.Arched_x0020_Green{fill:url(#SVGID_1_);stroke:#FFFFFF;stroke-width:0.25;stroke-miterlimit:1;}
	.st0{fill:#0097D0;}
	.st1{fill:#BED73B;}
	.st2{fill:#FFFFFF;}
</style>
<linearGradient id="SVGID_1_" gradientUnits="userSpaceOnUse" x1="24.3291" y1="157.0483" x2="25.0362" y2="156.3412">
	<stop  offset="0" style="stop-color:#20AC4B"/>
	<stop  offset="0.9831" style="stop-color:#19361A"/>
</linearGradient>
<g>
	<path class="st0" d="M11.3,12.4c6.5,0,11.3,4.8,11.3,11.6c0,6.8-4.8,11.6-11.3,11.6C4.9,35.5,0,30.8,0,24
		C0,17.1,4.9,12.4,11.3,12.4z M11.3,32.7c4.3,0,7.5-3.4,7.5-8.8c0-5.3-3.1-8.8-7.5-8.8c-4.3,0-7.4,3.4-7.4,8.8
		C3.9,29.4,7,32.7,11.3,32.7z"/>
	<path class="st0" d="M37.3,35.5c-6.6,0-11.2-4.7-11.2-11.3c0-7.1,4.6-11.8,11.8-11.8c2.6,0,5,0.6,7.6,1.9L45,17.7
		c-2.5-1.4-4.8-2.1-7.1-2.1c-4.9,0-8,3.2-8,8.3c0,5.3,3.2,8.5,7.8,8.5c2.6,0,5.2-1.1,8-3.2l-0.5,4.1C42.7,34.8,40,35.5,37.3,35.5z"
		/>
	<path class="st0" d="M66.5,35.6L66.2,33c-2.4,1.7-4.8,2.6-7.4,2.6c-5.9,0-10.2-4.5-10.2-10.9c0-7,5.1-12.1,11.8-12.1
		c2,0,3.8,0.5,5.4,1.4V1l3.8-1v34.6L66.5,35.6z M65.9,17.1c-2-1-3.8-1.4-5.5-1.4c-4.7,0-7.9,3.4-7.9,8.7c0,5.2,3,8.3,6.7,8.3
		c2.3,0,4.6-1,6.6-2.9V17.1z"/>
	<path class="st1" d="M93.1,33.9c-2.4,1.1-4.4,1.6-6.2,1.6c-6.6,0-10.9-4.6-10.9-11.2c0-6.9,5.2-11.8,11.1-11.8
		c1.8,0,3.7,0.5,5.6,1.3l5.1-0.5v14.8c0,2.4,0.2,4.5,0.7,6.4l-5.1,1L93.1,33.9z M92.3,17.9c-1.5-0.8-2.8-1.3-3.9-1.3
		c-3.9,0-6.6,3-6.6,7.9c0,4.2,2.3,6.6,6,6.6c1.3,0,2.8-0.5,4.5-1.5V17.9z"/>
	<path class="st1" d="M111.8,35.5c-7.2,0-12.1-4.7-12.1-11.6c0-6.3,5.3-11.6,12.7-11.6c2.3,0,4.7,0.6,7.3,1.5l-0.6,4.8
		c-2.5-1.1-4.4-1.6-6.1-1.6c-4.6,0-7.4,2.9-7.4,6.9c0,4.1,3,6.8,7.5,6.8c2.3,0,4.4-0.8,6.7-2.3l-0.6,5
		C116.9,34.9,114.5,35.5,111.8,35.5z"/>
	<path class="st1" d="M124.6,18.1h-3.4v-4.7h3.4V7l5.7-1v7.4h5.9v4.7h-5.9v7c0,0.3,0,0.6,0,1c0,4,0.1,6.1,3.7,8.6l-6.3,0.6
		c-2.9-1.7-3-4.2-3-8.1c0-0.3,0-0.7,0-1.1V18.1z"/>
	<path class="st1" d="M140.8,2.1c1.9,0,3.4,1.5,3.4,3.4c0,1.8-1.5,3.3-3.4,3.3c-1.9,0-3.4-1.5-3.4-3.3C137.5,3.7,139,2.1,140.8,2.1z
		 M138,34.6V13.4l5.7-1v22.2H138z"/>
	<path class="st1" d="M157,12.4c6.6,0,11.5,4.8,11.5,11.6c0,6.8-4.9,11.6-11.5,11.6c-6.5,0-11.5-4.8-11.5-11.6
		C145.5,17.2,150.5,12.4,157,12.4z M157,31.1c3.3,0,5.7-2.8,5.7-7.1c0-4.4-2.5-7.1-5.7-7.1c-3.3,0-5.8,2.7-5.8,7.1
		C151.2,28.4,153.7,31.1,157,31.1z"/>
	<path class="st1" d="M170.2,34.6V13.4h5.2v3.6c2.3-2.8,5-4.1,8.2-4.1c4.8,0,7.3,2.6,7.3,7.6v14.2h-5.6v-13c0-2.6-1.3-3.9-3.8-3.9
		c-3.6,0-5.8,1.7-5.8,5.1v11.8H170.2z"/>
</g>
<g>
	<path class="st2" d="M82.2,49.6c0-0.4,0.1-0.8,0.1-1.2c0-0.4,0.1-0.9,0.2-1.4c0.1-0.5,0.2-0.9,0.3-1.3c0.1-0.4,0.2-0.7,0.4-1
		c0.1-0.3,0.3-0.4,0.5-0.4c0.3,0,0.5,0.1,0.6,0.2c0.1,0.1,0.2,0.3,0.2,0.6c0,0.2,0,0.3-0.1,0.5c0,0.1-0.1,0.3-0.2,0.4
		c-0.1,0.1-0.1,0.3-0.2,0.4c-0.1,0.1-0.1,0.3-0.2,0.5c-0.1,0.2-0.1,0.4-0.2,0.7c0,0.3-0.1,0.5-0.1,0.8c0,0.3-0.1,0.5-0.1,0.8
		c0,0.2,0,0.5,0,0.7c0,0.4,0,0.7,0.1,0.9c0.1,0.3,0.1,0.5,0.2,0.7c0.1,0.2,0.2,0.4,0.3,0.7c0.1,0.2,0.2,0.5,0.3,0.8
		c0,0.1,0,0.1,0,0.1c0,0,0,0,0,0c0,0,0,0,0,0c0,0-0.1,0-0.2,0c-0.1,0-0.2,0-0.2,0.1c-0.1,0-0.2,0-0.2,0.1c-0.1,0-0.1,0-0.2,0h-0.1
		c-0.3,0-0.5-0.1-0.6-0.4c-0.2-0.3-0.3-0.5-0.3-0.9c-0.1-0.3-0.1-0.7-0.1-1c0-0.3,0-0.6,0-0.7C82.1,50.2,82.1,50,82.2,49.6z
		 M84.9,40.5c0.1-0.1,0.3-0.1,0.5-0.1c0.2,0,0.5,0,0.6,0.1c0.2,0.1,0.3,0.3,0.4,0.5c-0.1,0.1-0.2,0.3-0.4,0.3
		c-0.2,0.1-0.3,0.1-0.5,0.1c-0.1,0-0.2,0-0.2,0c-0.1,0-0.2,0-0.2,0c-0.1,0-0.1-0.1-0.2-0.1c0-0.1-0.1-0.1-0.1-0.2
		C84.8,40.8,84.8,40.6,84.9,40.5z"/>
	<path class="st2" d="M89.5,52.7c0-0.3,0-0.6,0-1c0-0.4,0-0.8,0-1.2c0-0.4,0-0.8,0-1.2c0-0.4,0-0.7,0-1c0-0.3,0-0.5,0-0.7
		c0-0.1,0-0.3,0-0.5c0-0.2,0-0.4-0.1-0.5c0-0.2,0-0.3-0.1-0.4c0-0.1,0-0.2,0-0.2h-0.4c-0.2,0.2-0.3,0.4-0.5,0.6
		c-0.2,0.2-0.4,0.3-0.6,0.5c-0.2,0.1-0.4,0.3-0.6,0.3c-0.2,0.1-0.5,0.1-0.8,0.1V47c0,0,0-0.1,0.1-0.1c0.1-0.1,0.2-0.2,0.3-0.3
		c0.1-0.1,0.2-0.2,0.3-0.3c0.1-0.1,0.2-0.2,0.3-0.3c0.1,0,0.2-0.1,0.4-0.2c0.2-0.1,0.4-0.2,0.6-0.4c0.2-0.1,0.4-0.3,0.6-0.5
		c0.2-0.2,0.3-0.3,0.3-0.5v-4.2C89,40.1,89,39.9,89,39.7c0-0.2,0-0.3,0-0.5c0-0.3,0.1-0.5,0.3-0.6c0.2-0.2,0.4-0.3,0.7-0.3
		c0.2,0,0.3,0,0.4,0c0.1,0,0.2,0.1,0.4,0.2V39c0,0.3,0,0.5,0,0.6c0,0.2-0.1,0.4-0.2,0.7v4c0.3,0,0.5,0,0.8-0.1
		c0.2-0.1,0.5-0.1,0.7-0.2c0.2-0.1,0.5-0.1,0.7-0.2c0.2-0.1,0.5-0.1,0.8-0.1c0.1,0,0.2,0,0.3,0c0.1,0,0.2,0,0.3,0
		c0.1,0,0.2,0.1,0.2,0.1c0.1,0.1,0.1,0.1,0.1,0.3c0,0,0,0.1,0,0.1c0,0,0,0.1,0,0.1c-0.1,0-0.3,0-0.6,0c-0.3,0-0.5,0-0.8,0.1
		c-0.3,0-0.6,0.1-0.9,0.1c-0.3,0.1-0.6,0.1-0.8,0.3c-0.2,0.1-0.4,0.2-0.6,0.4c-0.2,0.2-0.2,0.4-0.2,0.6c0,0.6,0,1.2,0.1,1.7
		c0,0.6,0.1,1.2,0.2,1.7c0.1,0.6,0.1,1.2,0.2,1.7c0,0.6,0.1,1.2,0.1,1.7c0,0.1,0,0.2,0,0.3c0,0.1-0.1,0.2-0.1,0.3
		c-0.1,0.1-0.1,0.2-0.2,0.2c-0.1,0.1-0.2,0.1-0.4,0.1c0,0-0.1,0-0.1,0c0,0-0.1,0-0.2-0.1c-0.1-0.1-0.2-0.1-0.2-0.1
		C89.5,53.2,89.5,53,89.5,52.7z"/>
	<path class="st2" d="M95.4,42.5c0-0.2,0.1-0.4,0.1-0.6c0-0.1,0-0.2,0-0.3c0-0.1,0-0.2,0-0.2c0-0.1,0-0.2,0-0.4c0-0.2,0-0.4-0.1-0.5
		c0-0.2-0.1-0.4-0.1-0.5c0-0.2,0-0.3-0.1-0.4c-0.1-0.1-0.1-0.2-0.2-0.3C95,39.2,95,39.1,95,39c0,0,0,0,0-0.1c0,0,0.1-0.1,0.1-0.1
		c0,0,0.1-0.1,0.1-0.1c0,0,0.1,0,0.2,0c0.1,0,0.2,0,0.2,0c0,0,0,0,0.1,0c0.1,0,0.1,0,0.2,0c0.1,0,0.1,0,0.2,0c0.1,0,0.1,0.1,0.1,0.1
		c0,0.2,0,0.5,0,0.7c0,0.2,0.1,0.5,0.1,0.7c0,0.2,0.1,0.5,0.1,0.7c0,0.2,0,0.5,0,0.7c0,0.1,0,0.2-0.1,0.3c-0.1,0.1-0.1,0.3-0.2,0.5
		c-0.1,0.2-0.2,0.3-0.3,0.4c-0.1,0.1-0.3,0.2-0.4,0.2h-0.1c0,0,0,0-0.1-0.1c0,0-0.1,0-0.1,0C95.3,42.9,95.4,42.7,95.4,42.5z"/>
	<path class="st2" d="M97.3,52.3c0-0.1,0.1-0.1,0.3-0.1c0.2,0,0.3,0,0.4,0.1c0.1,0.1,0.3,0.1,0.4,0.1c0.5,0,1-0.1,1.5-0.3
		c0.5-0.2,1-0.5,1.4-0.9c0.4-0.4,0.8-0.8,1-1.2c0.3-0.5,0.4-0.9,0.4-1.4c0-0.6-0.2-1.1-0.5-1.3c-0.3-0.2-0.8-0.4-1.5-0.4
		c-0.4,0-0.8,0.1-1.2,0.2c-0.4,0.1-0.8,0.3-1.2,0.4c-0.4,0.2-0.8,0.3-1.2,0.4c-0.4,0.1-0.8,0.2-1.2,0.2c-0.1,0-0.2,0-0.2-0.1
		c0-0.1-0.1-0.1-0.1-0.2c0-0.1,0-0.2,0-0.2c0-0.1,0-0.2,0-0.2c0-0.2,0.1-0.4,0.3-0.7c0.2-0.3,0.4-0.5,0.7-0.8c0.3-0.3,0.6-0.5,1-0.8
		c0.4-0.3,0.7-0.5,1.1-0.7c0.4-0.2,0.7-0.4,1-0.5c0.3-0.1,0.6-0.2,0.8-0.2v0.7c-0.1,0-0.2,0.1-0.3,0.2c-0.2,0.1-0.3,0.2-0.5,0.3
		c-0.2,0.1-0.3,0.2-0.5,0.3c-0.2,0.1-0.3,0.2-0.3,0.2c-0.1,0.1-0.2,0.2-0.3,0.3c-0.1,0.1-0.3,0.3-0.4,0.4c-0.1,0.1-0.2,0.2-0.3,0.3
		c-0.1,0.1-0.1,0.2-0.1,0.2v0.2c0.3,0,0.6,0,0.9-0.1c0.3-0.1,0.6-0.1,0.9-0.2c0.3-0.1,0.6-0.1,0.9-0.2c0.3-0.1,0.6-0.1,0.9-0.1
		c0.8,0,1.3,0.2,1.8,0.6c0.4,0.4,0.7,1,0.7,1.7c0,0.4-0.1,0.7-0.3,1.1c-0.2,0.4-0.4,0.8-0.7,1.2c-0.3,0.4-0.6,0.7-1,1.1
		c-0.4,0.3-0.8,0.6-1.2,0.9c-0.4,0.3-0.8,0.5-1.2,0.6c-0.4,0.2-0.8,0.2-1.2,0.2c-0.1,0-0.2,0-0.3-0.1c-0.1-0.1-0.2-0.1-0.3-0.2
		c-0.1-0.1-0.2-0.2-0.2-0.3c-0.1-0.1-0.1-0.2-0.1-0.3C97.2,52.4,97.2,52.3,97.3,52.3z"/>
	<path class="st2" d="M112.2,52.7c0-0.3,0-0.6,0-1c0-0.4,0-0.8,0-1.2c0-0.4,0-0.8,0-1.2c0-0.4,0-0.7,0-1c0-0.3,0-0.5,0-0.7
		c0-0.1,0-0.3,0-0.5c0-0.2,0-0.4-0.1-0.5c0-0.2,0-0.3-0.1-0.4c0-0.1,0-0.2,0-0.2h-0.4c-0.2,0.2-0.3,0.4-0.5,0.6
		c-0.2,0.2-0.4,0.3-0.6,0.5c-0.2,0.1-0.4,0.3-0.6,0.3c-0.2,0.1-0.5,0.1-0.8,0.1V47c0,0,0-0.1,0.1-0.1c0.1-0.1,0.2-0.2,0.3-0.3
		c0.1-0.1,0.2-0.2,0.3-0.3c0.1-0.1,0.2-0.2,0.3-0.3c0.1,0,0.2-0.1,0.4-0.2c0.2-0.1,0.4-0.2,0.6-0.4c0.2-0.1,0.4-0.3,0.6-0.5
		c0.2-0.2,0.3-0.3,0.3-0.5v-4.2c-0.1-0.2-0.1-0.4-0.2-0.6c0-0.2,0-0.3,0-0.5c0-0.3,0.1-0.5,0.3-0.6c0.2-0.2,0.4-0.3,0.7-0.3
		c0.2,0,0.3,0,0.4,0c0.1,0,0.2,0.1,0.4,0.2V39c0,0.3,0,0.5,0,0.6c0,0.2-0.1,0.4-0.2,0.7v4c0.3,0,0.5,0,0.8-0.1
		c0.2-0.1,0.5-0.1,0.7-0.2c0.2-0.1,0.5-0.1,0.7-0.2c0.2-0.1,0.5-0.1,0.8-0.1c0.1,0,0.2,0,0.3,0c0.1,0,0.2,0,0.3,0
		c0.1,0,0.2,0.1,0.2,0.1c0.1,0.1,0.1,0.1,0.1,0.3c0,0,0,0.1,0,0.1c0,0,0,0.1,0,0.1c-0.1,0-0.3,0-0.6,0c-0.3,0-0.5,0-0.8,0.1
		c-0.3,0-0.6,0.1-0.9,0.1c-0.3,0.1-0.6,0.1-0.8,0.3c-0.2,0.1-0.4,0.2-0.6,0.4c-0.2,0.2-0.2,0.4-0.2,0.6c0,0.6,0,1.2,0.1,1.7
		c0,0.6,0.1,1.2,0.2,1.7c0.1,0.6,0.1,1.2,0.2,1.7c0,0.6,0.1,1.2,0.1,1.7c0,0.1,0,0.2,0,0.3c0,0.1-0.1,0.2-0.1,0.3
		c-0.1,0.1-0.1,0.2-0.2,0.2c-0.1,0.1-0.2,0.1-0.3,0.1c0,0-0.1,0-0.1,0c0,0-0.1,0-0.2-0.1c-0.1-0.1-0.2-0.1-0.2-0.1
		C112.2,53.2,112.2,53,112.2,52.7z"/>
	<path class="st2" d="M116.2,49.6c0-0.4,0.1-0.8,0.1-1.2c0-0.4,0.1-0.9,0.2-1.4c0.1-0.5,0.2-0.9,0.3-1.3c0.1-0.4,0.2-0.7,0.4-1
		c0.1-0.3,0.3-0.4,0.5-0.4c0.3,0,0.5,0.1,0.6,0.2s0.2,0.3,0.2,0.6c0,0.2,0,0.3-0.1,0.5c0,0.1-0.1,0.3-0.2,0.4
		c-0.1,0.1-0.1,0.3-0.2,0.4c-0.1,0.1-0.1,0.3-0.2,0.5c-0.1,0.2-0.1,0.4-0.2,0.7c0,0.3-0.1,0.5-0.1,0.8c0,0.3-0.1,0.5-0.1,0.8
		c0,0.2,0,0.5,0,0.7c0,0.4,0,0.7,0.1,0.9c0.1,0.3,0.1,0.5,0.2,0.7c0.1,0.2,0.2,0.4,0.3,0.7c0.1,0.2,0.2,0.5,0.3,0.8
		c0,0.1,0,0.1,0,0.1c0,0,0,0,0,0c0,0,0,0,0,0c0,0-0.1,0-0.2,0c-0.1,0-0.2,0-0.2,0.1c-0.1,0-0.2,0-0.2,0.1c-0.1,0-0.1,0-0.2,0h-0.1
		c-0.3,0-0.5-0.1-0.6-0.4c-0.2-0.3-0.3-0.5-0.3-0.9c-0.1-0.3-0.1-0.7-0.1-1c0-0.3,0-0.6,0-0.7C116.1,50.2,116.1,50,116.2,49.6z
		 M118.9,40.5c0.1-0.1,0.3-0.1,0.5-0.1c0.2,0,0.5,0,0.6,0.1c0.2,0.1,0.3,0.3,0.4,0.5c-0.1,0.1-0.2,0.3-0.4,0.3
		c-0.2,0.1-0.3,0.1-0.5,0.1c-0.1,0-0.2,0-0.2,0c-0.1,0-0.2,0-0.2,0c-0.1,0-0.1-0.1-0.2-0.1c0-0.1-0.1-0.1-0.1-0.2
		C118.8,40.8,118.8,40.6,118.9,40.5z"/>
	<path class="st2" d="M121.5,53.8c0-0.2-0.1-0.5-0.1-0.7s-0.1-0.6-0.1-0.9c0-0.3-0.1-0.6-0.1-0.9c0-0.3-0.1-0.5-0.1-0.7
		c0-0.2,0-0.4-0.1-0.5c0,0,0-0.1,0-0.1c0-0.1,0-0.2,0-0.3c0-0.1,0-0.2,0-0.3c0-0.1,0-0.2,0-0.3c0-0.1,0-0.2,0-0.3c0-0.1,0-0.3,0-0.4
		c0-0.1,0-0.2,0-0.4c0-0.1,0-0.2,0-0.2c0-0.1,0-0.2,0-0.5c0-0.2,0-0.5,0-0.9c0-0.3,0-0.7,0-1c0-0.4,0-0.7,0-1c0-0.3,0-0.6,0-0.9
		c0-0.2,0-0.4,0-0.5c0-0.2,0-0.4,0-0.6c0-0.2,0-0.5,0-0.7c0-0.2,0.1-0.4,0.3-0.6c0.1-0.2,0.3-0.3,0.6-0.3c0.2,0,0.4,0.1,0.4,0.2
		c0.1,0.1,0.1,0.3,0.1,0.5c0,0.1,0,0.3,0,0.4c0,0.1-0.1,0.2-0.2,0.3c0,0.1,0,0.3-0.1,0.5c0,0.2,0,0.5-0.1,0.8c0,0.3-0.1,0.6-0.1,0.9
		c0,0.3-0.1,0.6-0.1,0.9c0,0.3,0,0.5-0.1,0.8c0,0.2,0,0.4,0,0.5c0,0,0,0.1,0,0.2c0,0.1,0,0.3,0,0.4c0,0.2,0,0.3,0,0.5
		c0,0.2,0,0.3,0,0.4c0,0.3,0,0.6,0,0.9c0,0.3,0,0.6,0,0.9c0,0.3,0.1,0.6,0.1,0.9c0.1,0.3,0.2,0.6,0.3,0.8c0.2-0.2,0.3-0.6,0.5-1.1
		c0.2-0.5,0.4-1.1,0.6-1.7c0.2-0.6,0.4-1.3,0.7-2c0.2-0.7,0.5-1.3,0.7-1.9c0.3-0.6,0.5-1,0.8-1.4c0.3-0.4,0.6-0.5,0.9-0.5
		c0.2,0,0.4,0.1,0.5,0.2c0.2,0.1,0.3,0.3,0.4,0.4c0,0.6,0,1.2-0.1,1.7c0,0.5,0,1.1,0,1.6c0,0.5,0.1,1,0.2,1.5c0.1,0.5,0.2,1,0.5,1.6
		c0,0.1,0.1,0.1,0.1,0.2c0,0.1,0.1,0.2,0.1,0.3c0,0.1,0.1,0.2,0.1,0.2c0,0.1,0.1,0.1,0.1,0.1h0.2c0-0.1,0.1-0.3,0.3-0.5
		c0.1-0.3,0.3-0.6,0.5-0.9c0.2-0.4,0.4-0.7,0.6-1.2s0.5-0.8,0.7-1.3c0.2-0.4,0.5-0.8,0.7-1.2c0.2-0.4,0.5-0.7,0.7-1.1
		c0.2-0.3,0.4-0.6,0.6-0.7c0.2-0.2,0.3-0.3,0.4-0.3c0,0,0.1,0,0.2,0c0.1,0,0.1,0,0.2,0c0.1,0,0.1,0,0.2,0.1c0,0,0.1,0.1,0.1,0.2
		c0,0.3,0,0.7,0,1.2c0,0.4,0,0.9,0,1.4c0,0.5,0.1,1,0.1,1.5c0,0.5,0.1,0.9,0.2,1.3c0.1,0.2,0.2,0.5,0.3,0.8c0.1,0.3,0.3,0.6,0.4,0.9
		c0.1,0.3,0.3,0.6,0.4,0.9c0.1,0.3,0.2,0.6,0.2,0.8c0,0,0,0.1-0.1,0.2c-0.1,0.1-0.1,0.2-0.1,0.2h-0.1c-0.3,0-0.5-0.1-0.7-0.3
		c-0.2-0.2-0.4-0.4-0.5-0.7c-0.1-0.3-0.3-0.6-0.3-0.9c-0.1-0.3-0.2-0.5-0.2-0.7c-0.1-0.4-0.2-0.8-0.3-1.1c-0.1-0.4-0.2-0.8-0.2-1.1
		c-0.1-0.4-0.1-0.7-0.1-1.1s0-0.8,0-1.2l-0.2-0.2c-0.3,0.3-0.6,0.7-0.8,1c-0.3,0.4-0.5,0.8-0.8,1.2c-0.2,0.4-0.5,0.9-0.6,1.3
		c-0.2,0.4-0.3,0.8-0.4,1.2c-0.1,0.2-0.1,0.5-0.2,0.9c0,0.4-0.1,0.7-0.2,1.1c-0.1,0.3-0.2,0.6-0.4,0.9c-0.2,0.3-0.4,0.4-0.8,0.4
		c-0.2,0-0.3-0.1-0.5-0.4c-0.2-0.3-0.3-0.6-0.4-1c-0.1-0.4-0.3-0.9-0.4-1.4c-0.1-0.5-0.2-1.1-0.3-1.6c-0.1-0.6-0.2-1.1-0.3-1.6
		c-0.1-0.5-0.2-1-0.2-1.4c-0.1-0.4-0.1-0.8-0.2-1c0-0.3-0.1-0.4-0.1-0.4c-0.2,0.1-0.4,0.4-0.6,0.7c-0.2,0.4-0.4,0.8-0.5,1.3
		c-0.2,0.5-0.4,1-0.5,1.6c-0.2,0.6-0.3,1.2-0.5,1.8c-0.2,0.6-0.3,1.2-0.5,1.7c-0.2,0.5-0.3,1-0.5,1.5c-0.1,0.4-0.3,0.8-0.4,1
		c-0.1,0.3-0.3,0.4-0.4,0.4c-0.1,0-0.2,0-0.3-0.1c-0.1-0.1-0.2-0.2-0.3-0.3C121.6,54.2,121.6,54,121.5,53.8z"/>
	<path class="st2" d="M137,49.1c0.1-0.4,0.2-0.9,0.3-1.3c0.1-0.5,0.3-0.9,0.5-1.4c0.2-0.4,0.5-0.9,0.7-1.2c0.3-0.4,0.6-0.6,0.9-0.9
		c0.3-0.2,0.7-0.3,1.1-0.3c0.4,0,0.7,0.1,1.1,0.2c0.4,0.1,0.6,0.3,0.9,0.6c0,0,0,0.1,0,0.1c0,0.1,0,0.1,0,0.2c0,0.1,0,0.1,0,0.2
		c0,0.1,0,0.1,0,0.1c0,0.3,0,0.6-0.1,0.9c-0.1,0.4-0.2,0.7-0.4,1.1c-0.2,0.4-0.3,0.8-0.5,1.1c-0.2,0.4-0.5,0.7-0.7,1
		c-0.3,0.3-0.6,0.5-0.9,0.7c-0.3,0.2-0.6,0.3-1,0.3c0-0.3,0.1-0.5,0.4-0.8c0.2-0.3,0.5-0.6,0.8-1c0.3-0.4,0.6-0.7,0.8-1.2
		c0.2-0.4,0.4-0.9,0.4-1.4c0,0,0-0.1,0-0.1c0-0.1,0-0.1,0-0.2c0-0.1,0-0.1,0-0.2c0-0.1,0-0.1,0-0.1c0,0-0.1-0.1-0.2-0.1
		c-0.1,0-0.2-0.1-0.2-0.1h-0.1c-0.6,0-1,0.2-1.4,0.5c-0.4,0.3-0.7,0.7-0.9,1.2c-0.2,0.5-0.4,1-0.5,1.5c-0.1,0.5-0.2,1-0.2,1.4
		c0,0.6,0.1,1.2,0.4,1.6c0.2,0.4,0.6,0.8,1,1c0.4,0.3,0.9,0.4,1.4,0.6c0.5,0.1,1.1,0.2,1.7,0.2c0,0.2-0.1,0.3-0.2,0.4
		c-0.1,0.1-0.3,0.2-0.5,0.2c-0.2,0.1-0.4,0.1-0.5,0.1c-0.2,0-0.3,0-0.4,0c-0.6,0-1.1-0.1-1.6-0.3c-0.5-0.2-0.9-0.5-1.2-0.9
		c-0.3-0.4-0.6-0.8-0.7-1.3c-0.2-0.5-0.3-1-0.3-1.5C136.9,49.9,136.9,49.5,137,49.1z"/>
	<path class="st2" d="M152,52.7c0-0.3,0-0.6,0-1c0-0.4,0-0.8,0-1.2c0-0.4,0-0.8,0-1.2c0-0.4,0-0.7,0-1c0-0.3,0-0.5,0-0.7
		c0-0.1,0-0.3,0-0.5c0-0.2,0-0.4-0.1-0.5c0-0.2,0-0.3-0.1-0.4c0-0.1,0-0.2,0-0.2h-0.4c-0.2,0.2-0.3,0.4-0.5,0.6
		c-0.2,0.2-0.4,0.3-0.6,0.5c-0.2,0.1-0.4,0.3-0.6,0.3c-0.2,0.1-0.5,0.1-0.8,0.1V47c0,0,0-0.1,0.1-0.1c0.1-0.1,0.2-0.2,0.3-0.3
		c0.1-0.1,0.2-0.2,0.3-0.3c0.1-0.1,0.2-0.2,0.3-0.3c0.1,0,0.2-0.1,0.4-0.2c0.2-0.1,0.4-0.2,0.6-0.4c0.2-0.1,0.4-0.3,0.6-0.5
		c0.2-0.2,0.3-0.3,0.3-0.5v-4.2c-0.1-0.2-0.1-0.4-0.2-0.6c0-0.2,0-0.3,0-0.5c0-0.3,0.1-0.5,0.3-0.6c0.2-0.2,0.4-0.3,0.7-0.3
		c0.2,0,0.3,0,0.4,0c0.1,0,0.2,0.1,0.4,0.2V39c0,0.3,0,0.5,0,0.6c0,0.2-0.1,0.4-0.2,0.7v4c0.3,0,0.5,0,0.8-0.1
		c0.2-0.1,0.5-0.1,0.7-0.2c0.2-0.1,0.5-0.1,0.7-0.2c0.2-0.1,0.5-0.1,0.8-0.1c0.1,0,0.2,0,0.3,0c0.1,0,0.2,0,0.3,0
		c0.1,0,0.2,0.1,0.2,0.1c0.1,0.1,0.1,0.1,0.1,0.3c0,0,0,0.1,0,0.1c0,0,0,0.1,0,0.1c-0.1,0-0.3,0-0.6,0c-0.2,0-0.5,0-0.8,0.1
		c-0.3,0-0.6,0.1-0.9,0.1c-0.3,0.1-0.6,0.1-0.8,0.3c-0.2,0.1-0.4,0.2-0.6,0.4c-0.2,0.2-0.2,0.4-0.2,0.6c0,0.6,0,1.2,0.1,1.7
		c0,0.6,0.1,1.2,0.2,1.7c0.1,0.6,0.1,1.2,0.2,1.7c0,0.6,0.1,1.2,0.1,1.7c0,0.1,0,0.2,0,0.3c0,0.1-0.1,0.2-0.1,0.3
		c-0.1,0.1-0.1,0.2-0.2,0.2c-0.1,0.1-0.2,0.1-0.4,0.1c0,0-0.1,0-0.1,0c0,0-0.1,0-0.2-0.1c-0.1-0.1-0.2-0.1-0.2-0.1
		C152,53.2,152,53,152,52.7z"/>
	<path class="st2" d="M156.3,48.8c0.2-0.6,0.4-1.1,0.6-1.6c0.3-0.5,0.6-1,0.9-1.5c0.4-0.5,0.7-1,1.1-1.5h2.7
		c0.2,0.4,0.4,0.8,0.6,1.2c0.2,0.4,0.3,0.8,0.5,1.1c0.1,0.4,0.2,0.8,0.3,1.2c0.1,0.4,0.1,0.9,0.1,1.4c0,0.6-0.1,1.2-0.3,1.8
		c-0.2,0.6-0.5,1.1-0.9,1.6c-0.4,0.5-0.9,0.8-1.4,1.1c-0.6,0.3-1.2,0.4-1.9,0.4c-0.5,0-0.9-0.1-1.3-0.3c-0.3-0.2-0.6-0.4-0.8-0.8
		c-0.2-0.3-0.3-0.7-0.4-1.1c-0.1-0.4-0.1-0.8-0.1-1.2C156,50,156.1,49.4,156.3,48.8z M157.1,51.4c0,0.3,0.1,0.6,0.2,0.8
		c0.1,0.2,0.3,0.4,0.6,0.6s0.6,0.2,1.1,0.2c0.7,0,1.3-0.2,1.7-0.5c0.4-0.3,0.8-0.7,1-1.2c0.2-0.5,0.4-1,0.5-1.6
		c0.1-0.6,0.1-1.1,0.1-1.6c0-0.1,0-0.2,0-0.3c0-0.1,0-0.2,0-0.4c0-0.1,0-0.2,0-0.3c0-0.1,0-0.1,0-0.1c0-0.2-0.1-0.5-0.1-0.7
		c0-0.2-0.1-0.5-0.2-0.6c-0.1-0.2-0.2-0.3-0.3-0.5c-0.1-0.1-0.3-0.2-0.6-0.2c-0.1,0-0.2,0-0.4,0.1c-0.2,0.1-0.4,0.1-0.6,0.2
		c-0.2,0.1-0.4,0.2-0.6,0.3c-0.2,0.1-0.3,0.2-0.4,0.2c-0.4,0.2-0.7,0.5-0.9,0.9c-0.2,0.4-0.4,0.7-0.6,1.1c-0.1,0.4-0.3,0.8-0.3,1.3
		c-0.1,0.4-0.1,0.8-0.1,1.2C157.1,50.7,157.1,51,157.1,51.4z"/>
	<path class="st2" d="M170.2,50.1c0.2-0.6,0.5-1.1,0.7-1.7c0-0.1,0.1-0.2,0.2-0.5c0.1-0.2,0.3-0.5,0.4-0.9c0.2-0.3,0.3-0.7,0.5-1
		c0.2-0.4,0.3-0.7,0.5-1c0.2-0.3,0.3-0.6,0.4-0.8c0.1-0.2,0.2-0.4,0.2-0.5c0,0,0.1-0.1,0.1-0.3c0-0.2,0.1-0.3,0.1-0.3c0,0,0,0,0,0
		c0,0,0,0,0-0.1v0c0,0,0-0.1,0-0.1c-0.3,0.1-0.5,0.2-0.8,0.4c-0.3,0.2-0.6,0.5-0.9,0.8c-0.3,0.3-0.6,0.7-0.8,1.1
		c-0.3,0.4-0.5,0.8-0.8,1.1c-0.2,0.4-0.4,0.7-0.6,1.1c-0.2,0.3-0.3,0.6-0.4,0.8h-0.3c0-0.4,0.1-0.8,0.3-1.2s0.4-0.9,0.7-1.3
		c0.3-0.4,0.6-0.9,1-1.3c0.4-0.4,0.8-0.8,1.2-1.2c0.4-0.4,0.8-0.7,1.1-1.1c0.4-0.3,0.7-0.6,1-0.8c0.2,0.1,0.4,0.2,0.5,0.2
		c0.1,0.1,0.2,0.2,0.2,0.4c0,0.3-0.1,0.7-0.2,1c-0.1,0.4-0.3,0.7-0.4,1c-0.2,0.3-0.4,0.7-0.5,1c-0.2,0.3-0.4,0.6-0.5,0.9
		c-0.2,0.4-0.4,0.7-0.6,1.2c-0.2,0.4-0.4,0.8-0.6,1.3c-0.2,0.4-0.4,0.9-0.5,1.3c-0.2,0.4-0.3,0.8-0.3,1.2c0,0.1,0,0.1,0,0.3
		c0,0.1,0,0.2,0,0.4c0,0.1,0,0.2,0,0.4c0,0.1,0,0.2,0,0.3c0.1,0,0.1,0,0.3,0.1c0.1,0.1,0.2,0.1,0.3,0.1c0.4-0.2,0.7-0.5,0.9-0.8
		c0.2-0.3,0.4-0.7,0.5-1.1c0.1-0.4,0.2-0.8,0.2-1.3c0-0.4,0.1-0.9,0.1-1.3c0-0.4,0-0.9,0.1-1.3c0-0.4,0.1-0.8,0.2-1.1
		c0.1,0,0.2-0.1,0.3-0.1c0.2,0,0.3-0.1,0.3-0.1h0.1c0.2,0,0.3,0.1,0.4,0.2c0.1,0.1,0.1,0.3,0.1,0.4c0,0.3,0,0.7-0.1,1
		c-0.1,0.3-0.1,0.7-0.1,1c0,0.5,0.1,1,0.2,1.4c0.1,0.5,0.2,0.9,0.4,1.3c0.2,0.4,0.4,0.9,0.6,1.3c0.2,0.4,0.5,0.9,0.7,1.3
		c0,0.1-0.1,0.1-0.2,0.2c-0.1,0.1-0.2,0.2-0.3,0.2c-0.2,0-0.4-0.1-0.6-0.3c-0.2-0.2-0.4-0.5-0.6-0.8c-0.2-0.3-0.4-0.6-0.5-0.9
		c-0.2-0.3-0.3-0.6-0.3-0.7c-0.2,0.1-0.4,0.3-0.5,0.5c-0.1,0.2-0.2,0.4-0.3,0.6c-0.1,0.2-0.2,0.4-0.3,0.6c-0.1,0.2-0.2,0.4-0.4,0.6
		c-0.2,0.2-0.3,0.3-0.6,0.4c-0.2,0.1-0.5,0.2-0.9,0.2c-0.2,0-0.4,0-0.6-0.1c-0.2-0.1-0.3-0.2-0.4-0.3c-0.1-0.1-0.1-0.3-0.2-0.5
		c0-0.2,0-0.4,0-0.5C169.9,51.3,170,50.7,170.2,50.1z"/>
	<path class="st2" d="M177.2,47.9c0.2-0.6,0.4-1.1,0.7-1.6c0.3-0.5,0.7-0.9,1.1-1.3c0.4-0.3,0.9-0.5,1.5-0.5c0.3,0,0.5,0.1,0.6,0.2
		c0.1,0.1,0.2,0.3,0.3,0.5c0.1,0.2,0.1,0.4,0.1,0.6c0,0.2,0,0.4,0,0.6c0,0,0,0.1,0,0.1c0,0.1,0,0.1,0,0.2c0,0.1,0,0.1,0,0.2
		c0,0.1,0,0.1,0,0.1c-0.2,0.2-0.3,0.3-0.4,0.3c-0.1,0.1-0.3,0.1-0.5,0.1c-0.2,0-0.3-0.1-0.5-0.2c-0.1-0.1-0.2-0.3-0.2-0.5
		c0-0.2-0.1-0.4-0.1-0.6c0-0.2,0-0.4,0.1-0.5c-0.3,0.1-0.6,0.3-0.9,0.6c-0.2,0.3-0.4,0.6-0.6,1c-0.1,0.4-0.3,0.7-0.3,1.1
		c-0.1,0.4-0.1,0.7-0.1,1c0,0.5,0.1,0.9,0.3,1.3c0.2,0.4,0.4,0.7,0.7,1c0.3,0.3,0.7,0.5,1.1,0.6c0.4,0.1,0.9,0.2,1.3,0.2
		c0.7,0,1.3-0.2,1.9-0.5c0.6-0.3,1.1-0.7,1.6-1.1c0.5-0.5,1-1,1.4-1.5c0.4-0.5,0.8-1,1.1-1.5c0,0,0.1,0.1,0.1,0.1
		c0,0,0.1,0.1,0.1,0.1c0,0,0,0.1,0,0.1c0,0.4-0.1,0.8-0.3,1.2c-0.2,0.4-0.5,0.8-0.9,1.2c-0.4,0.4-0.8,0.7-1.3,1.1
		c-0.5,0.3-1,0.6-1.5,0.9c-0.5,0.3-1,0.5-1.5,0.6s-0.9,0.2-1.3,0.2c-1.2,0-2.2-0.4-2.8-1.1c-0.7-0.7-1-1.7-1-2.8
		C176.9,48.9,177,48.4,177.2,47.9z"/>
	<path class="st2" d="M189.6,52.7c0-0.3,0-0.6,0-1c0-0.4,0-0.8,0-1.2c0-0.4,0-0.8,0-1.2c0-0.4,0-0.7,0-1c0-0.3,0-0.5,0-0.7
		c0-0.1,0-0.3,0-0.5c0-0.2,0-0.4-0.1-0.5c0-0.2,0-0.3-0.1-0.4c0-0.1,0-0.2,0-0.2h-0.4c-0.2,0.2-0.3,0.4-0.5,0.6
		c-0.2,0.2-0.4,0.3-0.6,0.5c-0.2,0.1-0.4,0.3-0.6,0.3c-0.2,0.1-0.5,0.1-0.8,0.1V47c0,0,0-0.1,0.1-0.1c0.1-0.1,0.2-0.2,0.3-0.3
		c0.1-0.1,0.2-0.2,0.3-0.3c0.1-0.1,0.2-0.2,0.3-0.3c0.1,0,0.2-0.1,0.4-0.2c0.2-0.1,0.4-0.2,0.6-0.4c0.2-0.1,0.4-0.3,0.6-0.5
		c0.2-0.2,0.3-0.3,0.3-0.5v-4.2c-0.1-0.2-0.1-0.4-0.2-0.6c0-0.2,0-0.3,0-0.5c0-0.3,0.1-0.5,0.3-0.6c0.2-0.2,0.4-0.3,0.7-0.3
		c0.2,0,0.3,0,0.4,0c0.1,0,0.2,0.1,0.4,0.2V39c0,0.3,0,0.5,0,0.6c0,0.2-0.1,0.4-0.2,0.7v4c0.3,0,0.5,0,0.8-0.1
		c0.2-0.1,0.5-0.1,0.7-0.2c0.2-0.1,0.5-0.1,0.7-0.2c0.2-0.1,0.5-0.1,0.8-0.1c0.1,0,0.2,0,0.3,0c0.1,0,0.2,0,0.3,0
		c0.1,0,0.2,0.1,0.2,0.1c0.1,0.1,0.1,0.1,0.1,0.3c0,0,0,0.1,0,0.1c0,0,0,0.1,0,0.1c-0.1,0-0.3,0-0.6,0c-0.3,0-0.5,0-0.8,0.1
		c-0.3,0-0.6,0.1-0.9,0.1c-0.3,0.1-0.6,0.1-0.8,0.3c-0.2,0.1-0.4,0.2-0.6,0.4c-0.2,0.2-0.2,0.4-0.2,0.6c0,0.6,0,1.2,0.1,1.7
		c0,0.6,0.1,1.2,0.2,1.7c0.1,0.6,0.1,1.2,0.2,1.7c0,0.6,0.1,1.2,0.1,1.7c0,0.1,0,0.2,0,0.3c0,0.1-0.1,0.2-0.1,0.3
		c-0.1,0.1-0.1,0.2-0.2,0.2c-0.1,0.1-0.2,0.1-0.4,0.1c0,0-0.1,0-0.1,0c0,0-0.1,0-0.2-0.1c-0.1-0.1-0.2-0.1-0.2-0.1
		C189.6,53.2,189.6,53,189.6,52.7z"/>
</g>
</svg>
