<svg version="1.1" xmlns="http://www.w3.org/2000/svg" xmlns:xlink="http://www.w3.org/1999/xlink" x="0px" y="0px"
	 width="98px" height="132px" viewBox="0 0 98 132" enable-background="new 0 0 98 132" xml:space="preserve">
<path fill="#ED174F" d="M78.676,102.79h17.592v5.244c-0.212,0-0.336-0.042-0.419-0.042
	c-0.546-0.038-0.96-0.038-1.294-0.038l-1.294-0.043l-1.173-0.039H86.28v5.489h5.723l0.877-0.038h1.048c0.333,0,0.711,0,1.126-0.044
	l0.42-0.04v5.328c-1.089-0.08-2.09-0.123-3.471-0.123H86.28v6.395h6.269h1.337h1.211c1.004-0.041,1.129-0.041,1.757-0.125v5.41
	H78.677c0.167-0.94,0.249-2.13,0.249-4.094V106.93C78.925,104.962,78.843,103.732,78.676,102.79 M50.349,102.79h7.687l9.194,16.925
	v-12.827c0-1.435-0.127-2.622-0.377-4.098h6.812c-0.169,0.9-0.253,2.131-0.253,4.098v23.236h-7.354l-9.232-16.885l0.042,12.791
	c0,1.309,0.082,2.54,0.29,4.094h-6.809c0.168-0.94,0.254-2.17,0.254-4.094v-19.143C50.603,104.962,50.517,103.732,50.349,102.79
	 M31.421,102.79h6.644l7.855,20.818c1.296,3.481,2.09,5.33,2.715,6.516h-8.481c-0.126-1.022-0.251-1.433-0.586-2.578l-0.333-1.313
	l-0.67-2.254l-0.376-0.043c-1.125,0-2.84-0.04-3.885-0.04c-1.084,0-2.299,0-3.511,0.04l-0.458,0.043l-0.752,2.456l-0.337,1.15
	l-0.373,1.106c-0.042,0.205-0.125,0.531-0.211,0.984l-0.124,0.448h-7.853c0.544-1.062,1.296-2.783,1.961-4.463l0.751-2.01
	l5.892-15.001l0.878-2.256C30.879,104.551,31.171,103.732,31.421,102.79 M37.146,118.898l-2.549-8.854l-2.716,8.854
	c0.502-0.046,0.627-0.046,1.422-0.085h1.126h1.087C36.519,118.855,36.559,118.855,37.146,118.898 M0.91,129.348l1.379-5.204
	c2.717,1.104,4.721,1.556,6.771,1.556c2.381,0,3.884-1.066,3.884-2.785c0-1.477-1.003-2.382-5.182-4.674
	c-3.423-1.884-4.761-2.991-5.597-4.795c-0.501-1.024-0.752-2.213-0.752-3.404c0-4.836,3.8-8.031,9.609-8.031
	c2.34,0,5.012,0.369,7.729,1.026l-1.295,5.039l-0.669-0.201c-2.381-0.742-3.424-0.944-4.595-0.944c-1.964,0-3.259,0.9-3.259,2.292
	c0,1.354,0.334,1.643,5.265,4.347c4.471,2.46,6.31,4.878,6.31,8.36c0,4.183-2.591,7.46-6.56,8.402
	c-1.338,0.326-2.591,0.451-4.137,0.451C6.803,130.782,3.96,130.331,0.91,129.348"/>
<path fill="#279DCF" d="M60.067,79.843c-0.19-0.882-0.927-3.598-3.112-5.835c-2.627-2.694-6.446-4.06-11.352-4.06
	c-5.484,0-9.655,1.384-12.396,4.104c-2.161,2.149-2.342,3.903-2.342,5.518c0,2.863,2.615,10.301,14.555,10.301
	c6.716,0,12.603-4.29,12.659-4.335c0.228-0.179,0.35-0.453,0.329-0.739c-0.021-0.284-0.184-0.542-0.436-0.686l-1.352-0.774
	c-0.322-0.188-0.609-0.241-0.898,0.002c-0.046,0.027-5.128,2.686-10.302,2.686c-7.318,0-9.922-3.779-10.78-5.74
	c5.345,0.141,24.363,0.833,24.578,0.841c0.01,0.003,0.021,0.003,0.03,0.003c0.015-0.003,0.031,0,0.044,0
	c0.488,0,0.884-0.388,0.884-0.867C60.177,80.107,60.139,79.965,60.067,79.843z M45.604,72.931c5.95,0,8.557,2.369,9.695,4.352
	h-20.37C36.043,75.306,38.8,72.931,45.604,72.931z M74.701,41.896c-0.025-0.458-0.408-0.817-0.877-0.819l-23.025-0.137
	c-0.228,0.038-0.47,0.093-0.638,0.262c-0.168,0.168-0.257,0.398-0.25,0.632l0.071,2.111c0.017,0.469,0.407,0.837,0.884,0.837
	c0.01,0,0.019,0,0.028,0l23.024-0.729c0.239-0.006,0.464-0.108,0.625-0.28c0.158-0.172,0.243-0.4,0.231-0.633L74.701,41.896z
	 M82.828,34.689c-0.093-0.247-0.293-0.438-0.545-0.522l-29.526-9.837c-0.219-0.073-0.462-0.058-0.676,0.043
	c-0.21,0.102-0.371,0.281-0.446,0.5l-0.689,2c-0.075,0.22-0.058,0.463,0.051,0.67c0.107,0.209,0.299,0.365,0.524,0.434l5.104,1.549
	l1.124,8.793c0.055,0.436,0.433,0.759,0.875,0.759c0.017,0,0.037,0,0.058-0.001L59.943,39c0.479-0.03,0.846-0.428,0.826-0.897
	l-0.278-7.399l20.556,6.243c0.085,0.027,0.172,0.039,0.259,0.039c0.305,0,0.596-0.154,0.76-0.419l0.691-1.132
	C82.892,35.209,82.92,34.934,82.828,34.689z M47.598,59.238c-0.029-0.452-0.405-0.808-0.866-0.815c0,0-9.349-0.185-13.341-0.158
	c2.111-6.438,11.134-34.076,11.134-34.076c0.127-0.389-0.041-0.813-0.403-1.017l-1.166-0.652c-0.227-0.127-0.501-0.148-0.749-0.058
	c-0.247,0.091-0.439,0.286-0.524,0.529L28.809,59.667l-0.476,1.436c-0.089,0.271-0.037,0.568,0.139,0.793
	c0.167,0.215,0.428,0.341,0.702,0.341c0.015,0,0.029,0,0.042-0.001l17.618-0.838c0.235-0.01,0.457-0.113,0.615-0.286
	c0.157-0.172,0.239-0.399,0.224-0.629L47.598,59.238z M37.196,22.884c-0.006-0.229-0.106-0.447-0.278-0.605
	c-0.17-0.158-0.395-0.234-0.634-0.235L19.29,22.59c-0.236,0.008-0.461,0.108-0.621,0.279s-0.244,0.397-0.232,0.63l0.061,1.243
	c0.023,0.456,0.402,0.815,0.866,0.824l16.994,0.32c0.006,0,0.011,0,0.017,0c0.236,0,0.462-0.093,0.627-0.256
	c0.17-0.168,0.264-0.398,0.256-0.635L37.196,22.884z M92.416,13.078C92.173,12.609,86.326,1.642,70.8,1.642
	c-7.614,0-13.93,2.478-20.039,4.875c-5.786,2.27-11.561,4.308-18.584,4.308c-12.809,0-14.603-6.225-14.619-6.283
	c-0.08-0.332-0.35-0.588-0.691-0.653l-2.099-0.397c-0.292-0.057-0.595,0.036-0.801,0.245c-0.207,0.211-0.294,0.508-0.23,0.793
	c0.097,0.426,2.539,10.428,18.44,10.428c7.623,0,13.935-2.477,20.04-4.874c5.325-2.088,11.267-4.022,18.584-4.022
	c13.342,0,18.084,7.822,18.126,7.896c0.158,0.301,0.469,0.494,0.828,0.469l1.915-0.093c0.3-0.014,0.572-0.177,0.722-0.43
	C92.542,13.65,92.55,13.338,92.416,13.078z"/>
</svg>
